<svg xmlns="http://www.w3.org/2000/svg" width="410" height="404" viewBox="0 0 410 404" fill="none">
<path d="M399.641 59.5246L215.643 388.545C211.844 395.338 202.084 395.378 198.228 388.618L10.5817 59.5563C6.38087 52.2027 12.6802 43.3231 21.0281 44.6691L205.223 73.5226C206.398 73.7101 207.601 73.7008 208.772 73.4949L389.119 44.6995C397.439 43.3553 403.768 52.1584 399.641 59.5246Z" fill="url(#paint0_linear)"/>
<path d="M292.965 1.5744L156.801 28.2552C154.563 28.6937 152.906 30.5903 152.771 32.8602L144.395 174.33C144.198 177.662 147.258 180.248 150.51 179.498L188.42 170.749C191.967 169.928 195.158 173.07 194.469 176.639L183.018 233.097C182.295 236.769 185.692 239.926 189.327 238.92L212.396 232.475C216.04 231.466 219.443 234.643 218.7 238.327L201.96 322.755C200.906 328.06 207.882 331.225 211.215 326.998L213.336 324.275L338.139 95.7464C340.236 92.0033 337.06 87.5479 332.882 88.3829L294.694 95.9881C290.948 96.7349 287.794 93.435 288.575 89.6986L313.477 -10.0974C314.272 -13.8804 311.114 -17.1815 307.318 -16.4302L292.965 1.5744Z" fill="url(#paint1_linear)"/>
<defs>
<linearGradient id="paint0_linear" x1="6.00017" y1="32.99" x2="235.011" y2="344.366" gradientUnits="userSpaceOnUse">
<stop stop-color="#41D1FF"/>
<stop offset="1" stop-color="#BD34FE"/>
</linearGradient>
<linearGradient id="paint1_linear" x1="194.651" y1="8.81818" x2="236.076" y2="292.989" gradientUnits="userSpaceOnUse">
<stop stop-color="#FFEA83"/>
<stop offset="0.0833333" stop-color="#FFDD35"/>
<stop offset="1" stop-color="#FFA800"/>
</linearGradient>
</defs>
</svg>